<?xml version="1.0" encoding="UTF-8" standalone="no"?>
<svg
   width="145"
   height="155"
   viewBox="0 0 145 155"
   fill="none"
   version="1.1"
   id="svg31"
   sodipodi:docname="amicoazul.svg"
   inkscape:version="1.3.2 (091e20e, 2023-11-25, custom)"
   xmlns:inkscape="http://www.inkscape.org/namespaces/inkscape"
   xmlns:sodipodi="http://sodipodi.sourceforge.net/DTD/sodipodi-0.dtd"
   xmlns="http://www.w3.org/2000/svg"
   xmlns:svg="http://www.w3.org/2000/svg">
  <defs
     id="defs31" />
  <sodipodi:namedview
     id="namedview31"
     pagecolor="#ffffff"
     bordercolor="#000000"
     borderopacity="0.25"
     inkscape:showpageshadow="2"
     inkscape:pageopacity="0.0"
     inkscape:pagecheckerboard="0"
     inkscape:deskcolor="#d1d1d1"
     showgrid="false"
     inkscape:zoom="5.0774194"
     inkscape:cx="72.576239"
     inkscape:cy="77.5"
     inkscape:window-width="1920"
     inkscape:window-height="1001"
     inkscape:window-x="-9"
     inkscape:window-y="-9"
     inkscape:window-maximized="1"
     inkscape:current-layer="svg31" />
  <path
     d="M6.22146 114.538C4.74622 115.274 4.74614 117.379 6.22132 118.116L79.1677 154.55C79.7303 154.831 80.3923 154.831 80.9549 154.55L141.417 124.357C142.892 123.621 142.893 121.516 141.417 120.779L68.4709 84.3447C67.9084 84.0638 67.2464 84.0637 66.6838 84.3447L6.22146 114.538Z"
     fill="black"
     fill-opacity="0.1"
     id="path1" />
  <path
     d="M138.854 121.341L80.0533 150.714L13.8391 117.562L72.6395 88.1953L138.854 121.341Z"
     fill="#EC5D01"
     id="path2" />
  <path
     opacity="0.5"
     d="M138.854 121.341L80.0533 150.714L13.8391 117.562L72.6395 88.1953L138.854 121.341Z"
     fill="black"
     id="path3"
     style="fill:#004ea9;fill-opacity:1;opacity:1" />
  <path
     d="M72.6395 48.375V88.1898L13.8391 117.556V77.7481L72.6395 48.375Z"
     fill="#EC5D01"
     id="path4" />
  <path
     opacity="0.23"
     d="M72.6395 48.375V88.1898L13.8391 117.556V77.7481L72.6395 48.375Z"
     fill="black"
     id="path5"
     style="fill:#0069e2;fill-opacity:1;opacity:1" />
  <path
     d="M80.0533 110.896V150.71L13.8391 117.558V77.75L80.0533 110.896Z"
     fill="#EC5D01"
     id="path6" />
  <path
     opacity="0.38"
     d="M80.0533 110.896V150.71L13.8391 117.558V77.75L80.0533 110.896Z"
     fill="black"
     id="path7"
     style="fill:#005bc3;fill-opacity:1;opacity:1" />
  <path
     d="M138.854 81.5206V121.335L72.6395 88.1898V48.375L138.854 81.5206Z"
     fill="#EC5D01"
     id="path8" />
  <path
     opacity="0.4"
     d="M138.854 81.5206V121.335L72.6395 88.1898V48.375L138.854 81.5206Z"
     fill="black"
     id="path9"
     style="fill:#0059bf;fill-opacity:1;opacity:1" />
  <path
     d="M138.854 121.338V81.5235L80.0533 110.897V150.711L138.854 121.338Z"
     fill="#EC5D01"
     id="path10" />
  <path
     opacity="0.23"
     d="M138.854 121.338V81.5235L80.0533 110.897V150.711L138.854 121.338Z"
     fill="black"
     id="path11"
     style="fill:#0069e2;fill-opacity:1;opacity:1" />
  <path
     d="M72.6395 48.3779L72.7192 26.3359L138.774 59.523L138.854 81.5235L72.6395 48.3779Z"
     fill="#EC5D01"
     id="path12" />
  <path
     opacity="0.2"
     d="M72.6395 48.3779L72.7192 26.3359L138.774 59.523L138.854 81.5235L72.6395 48.3779Z"
     fill="black"
     id="path13"
     style="fill:#006be8;fill-opacity:1;opacity:1" />
  <path
     d="M80.0533 110.895L85.5699 91.612L143.836 62.5078L138.854 81.5221L80.0533 110.895Z"
     fill="#EC5D01"
     id="path14" />
  <path
     opacity="0.3"
     d="M80.0533 110.895L85.5699 91.612L143.836 62.5078L138.854 81.5221L80.0533 110.895Z"
     fill="black"
     id="path15"
     style="fill:#0062d4;fill-opacity:1;opacity:1" />
  <path
     d="M13.8392 77.7495L6.82397 57.749L65.6243 28.3828L72.6396 48.3764L13.8392 77.7495Z"
     fill="#EC5D01"
     id="path16" />
  <path
     opacity="0.1"
     d="M13.8392 77.7495L6.82397 57.749L65.6243 28.3828L72.6396 48.3764L13.8392 77.7495Z"
     fill="black"
     id="path17"
     style="fill:#0076fd;fill-opacity:1;opacity:1" />
  <path
     d="M13.8391 77.7502L0 61.2188L66.2222 94.3644L80.0533 110.896L13.8391 77.7502Z"
     fill="#EC5D01"
     id="path18" />
  <path
     opacity="0.45"
     d="M13.8391 77.7502L0 61.2188L66.2222 94.3644L80.0533 110.896L13.8391 77.7502Z"
     fill="black"
     id="path19"
     style="fill:#0054b4;fill-opacity:1;opacity:1" />
  <g
     opacity="0.7"
     id="g23">
    <path
       d="M97.3682 138.869C97.2723 138.869 97.1802 138.837 97.1116 138.779C97.0431 138.721 97.0035 138.642 97.0015 138.559V131.552C97.0035 131.468 97.0428 131.388 97.1111 131.329C97.1795 131.27 97.2716 131.236 97.3682 131.234C97.464 131.236 97.5553 131.27 97.6223 131.33C97.6894 131.389 97.7269 131.469 97.7269 131.552V138.559C97.7269 138.641 97.6891 138.72 97.6218 138.778C97.5546 138.836 97.4633 138.869 97.3682 138.869Z"
       fill="white"
       id="path20" />
    <path
       d="M96.308 133.978C96.2604 133.985 96.212 133.985 96.1645 133.978C96.0775 133.944 96.0092 133.881 95.9736 133.805C95.938 133.728 95.9378 133.642 95.9732 133.565L97.2646 130.992L98.6995 132.427C98.7509 132.491 98.773 132.569 98.7618 132.647C98.7506 132.724 98.7067 132.795 98.6386 132.847C98.5705 132.898 98.4829 132.926 98.3927 132.924C98.3024 132.923 98.2158 132.893 98.1495 132.841L97.4719 132.151L96.6747 133.806C96.6402 133.863 96.5869 133.91 96.5217 133.941C96.4564 133.971 96.382 133.984 96.308 133.978Z"
       fill="white"
       id="path21" />
    <path
       d="M100.708 137.222C100.612 137.22 100.521 137.186 100.454 137.126C100.387 137.067 100.35 136.987 100.35 136.904V129.904C100.35 129.822 100.387 129.743 100.455 129.685C100.522 129.626 100.613 129.594 100.708 129.594C100.803 129.594 100.895 129.626 100.962 129.685C101.029 129.743 101.067 129.822 101.067 129.904V136.897C101.068 136.939 101.06 136.98 101.042 137.019C101.025 137.058 100.999 137.094 100.965 137.124C100.932 137.154 100.892 137.178 100.848 137.195C100.804 137.212 100.757 137.221 100.708 137.222Z"
       fill="white"
       id="path22" />
    <path
       d="M99.6482 132.333C99.6007 132.34 99.5522 132.34 99.5047 132.333C99.4609 132.317 99.4214 132.293 99.3884 132.263C99.3554 132.233 99.3297 132.198 99.3126 132.16C99.2955 132.121 99.2875 132.08 99.289 132.039C99.2905 131.998 99.3015 131.957 99.3213 131.919L100.605 129.312L102.04 130.74C102.106 130.799 102.143 130.878 102.143 130.961C102.143 131.043 102.106 131.122 102.04 131.182C102.006 131.211 101.967 131.234 101.923 131.25C101.879 131.266 101.832 131.274 101.785 131.274C101.737 131.274 101.69 131.266 101.646 131.25C101.603 131.234 101.563 131.211 101.53 131.182L100.852 130.492L100.055 132.147C100.022 132.214 99.9634 132.268 99.8894 132.302C99.8155 132.336 99.7303 132.347 99.6482 132.333Z"
       fill="white"
       id="path23" />
  </g>
  <g
     opacity="0.7"
     id="g25">
    <path
       d="M87.7303 143.626C87.5941 143.628 87.4596 143.599 87.3397 143.543C87.1956 143.463 87.0789 143.352 87.0017 143.219C86.9246 143.087 86.8899 142.939 86.9013 142.792V141.929C86.9034 141.847 86.9429 141.768 87.0115 141.71C87.08 141.652 87.1721 141.619 87.268 141.619C87.3631 141.619 87.4544 141.652 87.5216 141.71C87.5889 141.768 87.6267 141.847 87.6267 141.929V142.792C87.6267 142.916 87.6267 142.985 87.6985 142.998C87.7702 143.012 87.8101 142.998 87.9296 142.943C88.154 142.764 88.3308 142.545 88.4478 142.301C88.5647 142.057 88.6192 141.793 88.6073 141.529V137.943C88.6073 137.861 88.645 137.782 88.7123 137.724C88.7796 137.666 88.8708 137.633 88.966 137.633C89.0611 137.633 89.1524 137.666 89.2197 137.724C89.2869 137.782 89.3247 137.861 89.3247 137.943V141.529C89.3425 141.902 89.2587 142.273 89.0801 142.612C88.9014 142.951 88.6329 143.249 88.2964 143.481C88.126 143.572 87.9306 143.622 87.7303 143.626Z"
       fill="white"
       id="path24" />
    <path
       d="M83.9277 140.735V140.197C84.0225 138.816 84.4892 137.473 85.2906 136.275C86.092 135.078 87.2059 134.059 88.5434 133.3C89.8508 132.652 91.0944 132.555 92.0511 133.038C92.5613 133.341 92.9681 133.757 93.2289 134.242C93.4898 134.727 93.5951 135.264 93.5338 135.797V135.976L83.9277 140.735ZM90.7118 133.328C90.0735 133.353 89.4533 133.519 88.9101 133.811C87.764 134.463 86.7935 135.321 86.0645 136.327C85.3355 137.332 84.8651 138.462 84.6851 139.638L92.7924 135.583C92.827 135.184 92.7417 134.783 92.5448 134.421C92.3479 134.058 92.046 133.746 91.6684 133.514C91.3739 133.38 91.044 133.316 90.7118 133.328Z"
       fill="white"
       id="path25" />
  </g>
  <path
     opacity="0.7"
     d="M0 61.2188L66.2222 94.3644L80.0533 110.896L65.4888 94.9506L0 61.2188Z"
     fill="white"
     id="path26" />
  <path
     opacity="0.7"
     d="M138.854 81.5235L80.0533 110.897V150.711L81.1535 111.697L138.854 81.5235Z"
     fill="white"
     id="path27" />
  <path
     d="M52.5663 65.6007C58.6329 64.8421 64.1733 61.4627 67.7128 57.2143C69.3635 55.2293 70.5794 52.9993 71.3002 50.6349C72.0657 48.4238 72.1916 46.0839 71.6669 43.8209C70.5747 40.0346 66.525 37.7931 62.2442 37.3242C60.0719 37.0769 57.863 37.2633 55.787 37.869C53.6343 38.5081 51.7667 39.7139 50.4458 41.3174C49.6176 42.1716 49.0967 43.2169 48.9471 44.3243C48.9344 44.7581 49.1111 45.18 49.4421 45.506C49.7731 45.832 50.234 46.038 50.7328 46.083C52.0164 46.1766 53.2993 45.8949 54.3759 45.283C55.6888 44.6461 56.8452 43.7933 57.7799 42.7726C59.7851 40.6317 61.2855 38.1714 62.1963 35.531C62.8354 33.2654 62.8354 30.9 62.1963 28.6343C61.7108 26.2643 60.4587 24.0618 58.5851 22.2824C56.4372 20.5926 53.7115 19.5539 50.8205 19.3237C47.9432 18.9817 45.0136 19.2177 42.2587 20.0134C41.0487 20.3308 39.9277 20.8615 38.9664 21.5721C38.2808 22.1238 37.4995 23.0342 37.7785 23.9307C38.0576 24.8273 39.5722 25.2273 40.6006 25.1101C42.1226 24.8633 43.5167 24.2096 44.5865 23.2411C45.7788 22.2257 46.7914 21.0637 47.5919 19.7927C48.1866 18.8793 48.497 17.8479 48.4927 16.7995C48.3891 12.427 42.8008 9.59935 38.4243 8.79933C37.2428 8.5858 36.0327 8.51617 34.829 8.59244C34.4224 8.59244 34.6695 9.17176 34.9964 9.15107C37.3515 9.05848 39.692 9.51586 41.7724 10.4752C43.825 11.2914 45.5489 12.6195 46.723 14.2891C47.2462 15.1123 47.5044 16.0418 47.4708 16.9808C47.4371 17.9197 47.1128 18.8337 46.5316 19.6272C45.7511 20.8034 44.7792 21.8764 43.6458 22.8135C42.6972 23.5583 41.2543 24.4204 39.923 24.3376C39.7032 24.3372 39.4879 24.2833 39.3019 24.1821C39.1158 24.0809 38.9664 23.9364 38.8707 23.7652C38.8305 23.5388 38.8521 23.3073 38.9338 23.0894C39.0155 22.8714 39.1549 22.673 39.341 22.51C40.045 21.8541 40.9156 21.3489 41.884 21.0341C44.2757 20.174 46.8653 19.8057 49.4493 19.9582C52.1123 19.9999 54.7021 20.7196 56.895 22.0272C58.8054 23.3995 60.1622 25.2616 60.7694 27.3446C61.5385 29.4607 61.7776 31.6942 61.4709 33.8965C60.9975 36.1125 60.0133 38.2235 58.5771 40.1035C57.1023 42.2139 55.2528 44.2416 52.4786 45.0692C51.7931 45.283 50.3581 45.5933 50.0871 44.7312C49.816 43.8692 50.5973 42.8071 51.0995 42.1381C52.2101 40.6259 53.8292 39.4442 55.7391 38.7518C57.5821 38.1127 59.5717 37.853 61.5506 37.9932C65.3053 38.2345 69.1159 39.9311 70.4233 43.1588C71.0791 45.0878 71.1505 47.1302 70.6305 49.09C70.1616 51.2381 69.269 53.3004 67.9919 55.1867C65.2447 59.1946 61.0843 62.3346 56.1218 64.1455C54.9419 64.5869 53.7302 64.9593 52.4946 65.3042C52.367 65.3456 52.4228 65.6214 52.5663 65.6007Z"
     fill="#E0E0E0"
     id="path28" />
  <path
     d="M27.2238 5.72047C24.0351 5.52047 19.6426 7.69294 21.2051 9.27919C22.7676 10.8654 26.9129 8.29984 26.9129 8.29984C26.9129 8.29984 26.5223 11.5068 27.8775 11.8723C29.2327 12.2379 31.0663 9.17573 29.711 7.21706C30.3646 7.43997 31.0727 7.51639 31.7695 7.43922C32.4664 7.36206 33.1294 7.13381 33.697 6.77567C35.6262 5.54806 33.5854 4.3894 30.867 4.59631C30.867 4.59631 32.8121 -0.921072 28.882 0.134126C26.9129 0.65138 26.2194 2.64454 27.2238 5.72047Z"
     fill="#EC5D01"
     id="path29" />
  <path
     opacity="0.65"
     d="M27.2238 5.72047C24.0351 5.52047 19.6426 7.69294 21.2051 9.27919C22.7676 10.8654 26.9129 8.29984 26.9129 8.29984C26.9129 8.29984 26.5223 11.5068 27.8775 11.8723C29.2327 12.2379 31.0663 9.17573 29.711 7.21706C30.3646 7.43997 31.0727 7.51639 31.7695 7.43922C32.4664 7.36206 33.1294 7.13381 33.697 6.77567C35.6262 5.54806 33.5854 4.3894 30.867 4.59631C30.867 4.59631 32.8121 -0.921072 28.882 0.134126C26.9129 0.65138 26.2194 2.64454 27.2238 5.72047Z"
     fill="white"
     id="path30"
     style="fill:#acd2ff;fill-opacity:1;opacity:1" />
  <path
     d="M30.1894 6.89291C30.013 6.74345 29.8266 6.60298 29.6314 6.47221C29.3524 6.286 29.0574 6.10669 28.7784 5.92737C28.5067 5.75649 28.2217 5.60208 27.9254 5.46528C27.7548 5.3834 27.5792 5.30973 27.3993 5.24459C27.1508 5.14367 26.8745 5.10542 26.6021 5.13424C26.5307 5.13599 26.4611 5.15429 26.4007 5.18725C26.3403 5.22021 26.2912 5.26661 26.2586 5.3216C26.226 5.37658 26.2111 5.43812 26.2155 5.4998C26.2198 5.56148 26.2432 5.62101 26.2832 5.67219C26.5023 5.87758 26.7759 6.03379 27.0804 6.12737L27.5109 6.32737C27.8058 6.4791 28.0689 6.65152 28.308 6.82394C28.5472 6.99636 28.8661 7.16188 29.1052 7.3343C29.5164 7.62283 29.9761 7.85539 30.4684 8.02397C30.4905 8.03423 30.5151 8.03961 30.5402 8.03961C30.5652 8.03961 30.5899 8.03423 30.6119 8.02397C31.0185 7.7481 30.4206 7.09292 30.1894 6.89291Z"
     fill="#455A64"
     id="path31" />
</svg>
